<?xml version="1.0" standalone="no"?>
<!DOCTYPE svg PUBLIC "-//W3C//DTD SVG 20010904//EN"
 "http://www.w3.org/TR/2001/REC-SVG-20010904/DTD/svg10.dtd">
<svg version="1.0" xmlns="http://www.w3.org/2000/svg"
 width="1096.000000pt" height="1096.000000pt" viewBox="0 0 1096.000000 1096.000000"
 preserveAspectRatio="xMidYMid meet">
<metadata>
Created by potrace 1.14, written by Peter Selinger 2001-2017
</metadata>
<g transform="translate(0.000000,1096.000000) scale(0.100000,-0.100000)"
fill="#000000" stroke="none">
<path d="M5309 10955 c-2 -2 -20 -6 -39 -9 -50 -8 -143 -36 -157 -48 -7 -6
-13 -7 -13 -3 0 8 -106 -48 -246 -131 -54 -32 -102 -58 -106 -56 -5 1 -8 -2
-8 -7 0 -5 -19 -19 -42 -30 -24 -11 -66 -36 -94 -54 -28 -19 -66 -40 -83 -48
-17 -8 -31 -17 -31 -21 0 -5 -4 -8 -10 -8 -5 0 -34 -16 -64 -35 -30 -19 -57
-35 -60 -35 -5 0 -69 -38 -131 -78 -11 -6 -27 -15 -35 -19 -8 -4 -17 -9 -20
-12 -3 -3 -25 -17 -50 -30 -25 -14 -47 -27 -50 -30 -3 -3 -21 -14 -40 -24 -62
-33 -95 -52 -100 -58 -3 -3 -70 -43 -150 -89 -80 -46 -164 -96 -186 -111 -23
-16 -44 -25 -48 -22 -3 4 -6 1 -6 -5 0 -7 -7 -12 -15 -12 -8 0 -15 -3 -15 -8
0 -4 -17 -15 -37 -25 -21 -9 -77 -41 -126 -71 -48 -30 -91 -56 -95 -58 -4 -2
-68 -39 -142 -83 -74 -44 -138 -79 -142 -77 -5 1 -8 -2 -8 -7 0 -5 -20 -19
-45 -31 -25 -12 -51 -27 -58 -34 -7 -6 -28 -19 -47 -29 -70 -38 -95 -52 -106
-63 -7 -6 -26 -17 -43 -24 -17 -7 -31 -16 -31 -21 0 -5 -6 -9 -13 -9 -7 0 -36
-15 -65 -34 -28 -19 -52 -32 -52 -28 0 4 -4 2 -8 -3 -6 -10 -129 -84 -252
-153 -25 -14 -61 -35 -80 -47 -19 -12 -39 -22 -44 -23 -5 0 -12 -4 -15 -10 -3
-5 -29 -22 -58 -38 -29 -16 -120 -69 -204 -119 -83 -49 -168 -99 -188 -111
-20 -12 -94 -55 -164 -97 -71 -43 -133 -77 -138 -77 -5 0 -9 -4 -9 -10 0 -5
-4 -10 -10 -10 -5 0 -50 -25 -100 -55 -50 -30 -93 -55 -96 -55 -4 0 -26 -14
-51 -30 -24 -17 -58 -37 -75 -46 -114 -59 -231 -268 -264 -469 -1 -5 -3 -12
-4 -15 -1 -3 -4 -16 -6 -30 -2 -14 -6 -45 -10 -70 -3 -25 -7 -69 -8 -97 0 -29
-3 -53 -6 -53 -3 0 -6 -26 -6 -58 -1 -31 -4 -214 -8 -407 -4 -192 -8 -379 -11
-415 -2 -36 -7 -159 -10 -275 -4 -115 -8 -259 -10 -320 -8 -229 -19 -1547 -19
-2205 -1 -770 6 -989 39 -1243 9 -75 31 -130 67 -170 20 -23 38 -45 38 -50 1
-21 234 -227 258 -227 6 0 12 -4 14 -9 3 -9 209 -138 237 -148 9 -4 18 -9 21
-12 5 -6 341 -176 350 -176 8 -1 301 -151 350 -180 25 -14 53 -28 63 -32 9 -3
17 -9 17 -13 0 -4 8 -10 18 -13 9 -4 35 -17 57 -31 22 -14 54 -33 70 -42 31
-17 219 -127 245 -144 80 -49 167 -99 174 -99 5 1 12 -3 15 -8 3 -5 31 -24 61
-41 30 -18 62 -37 70 -42 49 -31 322 -190 325 -190 2 0 23 -12 47 -27 57 -37
75 -48 123 -74 22 -11 43 -25 46 -31 3 -5 12 -10 20 -12 8 -1 32 -13 54 -27
34 -22 174 -105 320 -189 22 -13 48 -30 58 -38 9 -8 17 -12 17 -8 0 4 6 2 12
-4 21 -18 247 -150 258 -150 5 0 13 -7 18 -16 5 -8 16 -16 24 -18 9 -1 22 -7
29 -12 8 -6 41 -26 74 -44 33 -19 62 -37 63 -42 2 -4 8 -8 13 -8 5 0 32 -15
61 -34 29 -18 57 -34 62 -34 5 0 12 -4 15 -9 7 -10 68 -53 75 -53 3 0 51 -29
108 -65 57 -36 109 -65 116 -65 6 0 12 -4 12 -10 0 -5 6 -10 13 -10 7 0 29
-11 50 -25 20 -14 37 -24 37 -21 0 3 29 -10 64 -29 35 -18 67 -31 70 -28 3 4
6 2 6 -4 0 -6 11 -14 25 -17 13 -3 37 -11 52 -18 15 -6 31 -12 36 -13 4 -2 8
-3 10 -5 1 -1 9 -3 17 -5 8 -2 35 -10 60 -18 25 -8 63 -18 85 -23 22 -4 47 -9
55 -11 8 -3 69 -6 135 -8 108 -3 157 2 265 29 27 7 124 46 157 64 18 9 90 46
160 82 71 35 130 67 133 71 3 4 21 14 40 23 19 8 44 21 55 28 48 32 126 78
129 78 2 0 33 18 67 40 35 22 83 50 107 62 23 12 42 26 42 30 0 4 4 8 9 8 6 0
30 14 54 30 25 17 49 30 55 30 6 0 12 4 14 8 2 7 103 72 193 125 11 7 22 14
25 17 5 5 18 12 75 44 19 11 29 18 60 44 8 7 15 11 15 8 0 -3 40 19 90 49 49
30 94 55 100 55 5 0 10 4 10 8 0 4 19 18 43 30 23 12 58 32 77 44 19 11 44 26
55 32 11 6 39 24 62 39 24 15 45 27 49 27 3 0 18 8 32 19 15 10 43 27 62 38
41 23 139 80 160 93 35 22 158 95 188 112 80 45 347 203 352 208 5 5 39 24
100 57 19 10 37 20 40 23 5 5 37 25 115 70 17 10 80 46 140 82 61 36 198 117
305 180 107 63 213 126 235 140 22 14 50 28 62 32 13 4 23 11 23 16 0 5 17 14
37 21 21 6 44 18 51 26 7 7 20 13 28 13 8 0 14 5 14 10 0 6 9 10 20 10 11 0
20 4 20 8 0 4 12 13 28 19 39 17 174 93 193 109 8 8 19 14 23 14 10 0 183 119
222 152 113 96 182 186 200 261 1 4 2 8 4 10 1 1 3 35 5 75 2 40 6 79 9 87 3
8 1 17 -5 20 -5 4 -7 11 -3 16 3 6 8 56 9 112 12 384 16 506 20 612 20 535 27
1983 12 2375 -12 315 -16 406 -23 518 -3 59 -8 141 -10 182 -3 41 -6 111 -9
155 -2 44 -4 80 -5 80 -1 0 -3 27 -5 60 -2 33 -6 89 -10 125 -3 36 -7 92 -9
126 -1 33 -6 66 -10 72 -4 7 -2 12 4 12 6 0 8 5 5 11 -4 6 -9 54 -11 107 -5
104 -12 207 -14 207 -1 0 -3 20 -5 45 -9 115 -38 270 -67 355 -52 153 -121
249 -208 291 -22 11 -40 22 -40 27 0 4 -5 7 -10 7 -6 0 -44 20 -84 45 -41 25
-79 45 -84 45 -6 0 -12 4 -14 8 -1 5 -37 28 -78 53 -41 24 -88 52 -105 62 -16
9 -38 20 -47 23 -10 4 -18 10 -18 15 0 5 -7 9 -15 9 -8 0 -15 4 -15 10 0 5 -3
9 -7 8 -5 -1 -55 26 -113 60 -58 35 -112 67 -120 72 -8 4 -46 27 -83 49 -38
23 -72 41 -78 41 -5 0 -9 5 -9 10 0 6 -4 10 -10 10 -8 0 -107 56 -160 90 -8 6
-26 16 -40 22 -14 7 -27 15 -30 18 -3 4 -32 21 -65 40 -33 18 -66 38 -74 44
-7 5 -20 11 -29 12 -8 2 -19 10 -24 18 -5 9 -13 16 -19 16 -5 0 -66 34 -137
76 -70 43 -147 88 -172 102 -25 14 -57 32 -72 41 -14 9 -64 38 -110 66 -45 27
-95 56 -110 64 -16 7 -28 17 -28 22 0 5 -9 9 -19 9 -11 0 -21 3 -23 8 -1 4
-19 16 -38 26 -19 11 -53 31 -75 45 -22 14 -42 26 -45 26 -3 1 -30 16 -60 35
-30 19 -57 33 -59 32 -2 -2 -7 0 -10 6 -3 5 -27 20 -52 34 -79 44 -94 53 -99
58 -5 5 -24 16 -99 57 -25 14 -52 30 -59 36 -19 15 -75 47 -94 53 -10 4 -18
11 -18 16 0 5 -4 7 -9 4 -5 -4 -11 -2 -13 2 -3 8 -75 52 -125 76 -13 6 -23 14
-23 19 0 4 -5 7 -10 7 -6 0 -47 23 -91 50 -44 28 -83 50 -86 50 -3 0 -24 12
-47 28 -22 15 -54 34 -71 42 -16 8 -32 17 -35 20 -10 10 -65 41 -82 47 -10 3
-18 9 -18 14 0 5 -5 9 -11 9 -6 0 -29 13 -52 28 -23 15 -55 34 -72 42 -16 8
-32 17 -35 20 -12 13 -159 100 -168 100 -6 0 -12 4 -14 9 -1 5 -10 11 -18 13
-8 2 -17 5 -20 9 -17 18 -246 140 -252 133 -3 -2 -11 2 -18 11 -7 8 -20 15
-30 15 -9 0 -20 3 -23 7 -9 8 -104 43 -137 49 -14 3 -29 9 -34 15 -6 5 -24 9
-41 9 -18 0 -35 3 -39 7 -3 4 -16 8 -29 10 -35 5 -274 12 -278 8z"/>
</g>
</svg>
